P2
5 5
99
10  45  69  12  32
78  31  65  97  12
15  75  12  46  62
12  46  73  49  53
25  64  66  79  13